<?xml version="1.0" encoding="UTF-8" standalone="no"?>
<!-- Created with Inkscape (http://www.inkscape.org/) -->

<svg
   xmlns:dc="http://purl.org/dc/elements/1.1/"
   xmlns:cc="http://creativecommons.org/ns#"
   xmlns:rdf="http://www.w3.org/1999/02/22-rdf-syntax-ns#"
   xmlns:svg="http://www.w3.org/2000/svg"
   xmlns="http://www.w3.org/2000/svg"
   xmlns:sodipodi="http://sodipodi.sourceforge.net/DTD/sodipodi-0.dtd"
   xmlns:inkscape="http://www.inkscape.org/namespaces/inkscape"
   id="svg3269"
   version="1.1"
   inkscape:version="0.48.3.1 r9886"
   width="312.5"
   height="163.75"
   xml:space="preserve"
   sodipodi:docname="boolt-d.eps"><metadata
     id="metadata3275"><rdf:RDF><cc:Work
         rdf:about=""><dc:format>image/svg+xml</dc:format><dc:type
           rdf:resource="http://purl.org/dc/dcmitype/StillImage" /><dc:title></dc:title></cc:Work></rdf:RDF></metadata><defs
     id="defs3273" /><sodipodi:namedview
     pagecolor="#ffffff"
     bordercolor="#666666"
     borderopacity="1"
     objecttolerance="10"
     gridtolerance="10"
     guidetolerance="10"
     inkscape:pageopacity="0"
     inkscape:pageshadow="2"
     inkscape:window-width="1363"
     inkscape:window-height="557"
     id="namedview3271"
     showgrid="false"
     inkscape:zoom="1"
     inkscape:cx="156.25"
     inkscape:cy="81.875"
     inkscape:window-x="0"
     inkscape:window-y="150"
     inkscape:window-maximized="0"
     inkscape:current-layer="g3277" /><g
     id="g3277"
     inkscape:groupmode="layer"
     inkscape:label="ink_ext_XXXXXX"
     transform="matrix(1.25,0,0,-1.25,0,163.75)"><path
       inkscape:connector-curvature="0"
       id="path3281"
       style="fill:#ffffff;fill-opacity:1;fill-rule:evenodd;stroke:none"
       d="m 106.096,36.7391 c 0.021,0 0.042,4e-4 0.063,4e-4 9.949,0 18.015,-8.0661 18.015,-18.0153 0,-9.9492 -8.066,-18.015216 -18.015,-18.015216 -0.021,0 -0.043,0 -0.063,0" /><path
       inkscape:connector-curvature="0"
       id="path3283"
       style="fill:none;stroke:#000000;stroke-width:0.47242498;stroke-linecap:butt;stroke-linejoin:miter;stroke-miterlimit:10;stroke-opacity:1;stroke-dasharray:none"
       d="m 106.096,36.7391 c 0.021,0 0.042,4e-4 0.063,4e-4 9.949,0 18.015,-8.0661 18.015,-18.0153 0,-9.9492 -8.066,-18.015216 -18.015,-18.015216 -0.021,0 -0.043,0 -0.063,0" /><path
       inkscape:connector-curvature="0"
       id="path3285"
       style="fill:#ffffff;fill-opacity:1;fill-rule:evenodd;stroke:none"
       d="m 88.1438,0.771875 17.9523,0 0,35.9676 -17.9523,0 0,-35.9676 z" /><path
       inkscape:connector-curvature="0"
       id="path3287"
       style="fill:none;stroke:#000000;stroke-width:0.47242498;stroke-linecap:butt;stroke-linejoin:miter;stroke-miterlimit:10;stroke-opacity:1;stroke-dasharray:none"
       d="m 106.096,36.7395 -17.9522,0 0,-35.967625 17.9522,0" /><path
       inkscape:connector-curvature="0"
       id="path3289"
       style="fill:#ffffff;fill-opacity:1;fill-rule:evenodd;stroke:none"
       d="m 30.4457,126.812 c 3.4336,0.926 6.975,1.395 10.5313,1.395 14.0941,0 27.1722,-7.336 34.5199,-19.363" /><path
       inkscape:connector-curvature="0"
       id="path3291"
       style="fill:none;stroke:#000000;stroke-width:0.47242498;stroke-linecap:butt;stroke-linejoin:miter;stroke-miterlimit:10;stroke-opacity:1;stroke-dasharray:none"
       d="m 30.4457,126.812 c 3.4336,0.926 6.975,1.395 10.5313,1.395 14.0941,0 27.1722,-7.336 34.5199,-19.363" /><path
       inkscape:connector-curvature="0"
       id="path3293"
       style="fill:#ffffff;fill-opacity:1;fill-rule:evenodd;stroke:none"
       d="m 30.4453,90.7844 c 3.4336,-0.9278 6.975,-1.3981 10.5317,-1.3981 14.0918,0 27.1644,7.3485 34.4886,19.3867" /><path
       inkscape:connector-curvature="0"
       id="path3295"
       style="fill:none;stroke:#000000;stroke-width:0.47242498;stroke-linecap:butt;stroke-linejoin:miter;stroke-miterlimit:10;stroke-opacity:1;stroke-dasharray:none"
       d="m 30.4453,90.7844 c 3.4336,-0.9278 6.975,-1.3981 10.5317,-1.3981 14.0918,0 27.1644,7.3485 34.4886,19.3867" /><path
       inkscape:connector-curvature="0"
       id="path3297"
       style="fill:#ffffff;fill-opacity:1;fill-rule:evenodd;stroke:none"
       d="m 186.031,83.9789 c 3.433,0.9258 6.975,1.3949 10.531,1.3949 14.094,0 27.173,-7.3359 34.52,-19.3633" /><path
       inkscape:connector-curvature="0"
       id="path3299"
       style="fill:none;stroke:#000000;stroke-width:0.47242498;stroke-linecap:butt;stroke-linejoin:miter;stroke-miterlimit:10;stroke-opacity:1;stroke-dasharray:none"
       d="m 186.031,83.9789 c 3.433,0.9258 6.975,1.3949 10.531,1.3949 14.094,0 27.173,-7.3359 34.52,-19.3633" /><path
       inkscape:connector-curvature="0"
       id="path3301"
       style="fill:#ffffff;fill-opacity:1;fill-rule:evenodd;stroke:none"
       d="m 186.03,47.9512 c 3.434,-0.9278 6.975,-1.3981 10.532,-1.3981 14.092,0 27.165,7.3485 34.489,19.3871" /><path
       inkscape:connector-curvature="0"
       id="path3303"
       style="fill:none;stroke:#000000;stroke-width:0.47242498;stroke-linecap:butt;stroke-linejoin:miter;stroke-miterlimit:10;stroke-opacity:1;stroke-dasharray:none"
       d="m 186.03,47.9512 c 3.434,-0.9278 6.975,-1.3981 10.532,-1.3981 14.092,0 27.165,7.3485 34.489,19.3871" /><path
       inkscape:connector-curvature="0"
       id="path3305"
       style="fill:none;stroke:#000000;stroke-width:0.47242498;stroke-linecap:butt;stroke-linejoin:miter;stroke-miterlimit:10;stroke-opacity:1;stroke-dasharray:none"
       d="m 70.1289,27.7316 18.0149,0" /><path
       inkscape:connector-curvature="0"
       id="path3307"
       style="fill:none;stroke:#000000;stroke-width:0.47242498;stroke-linecap:butt;stroke-linejoin:miter;stroke-miterlimit:10;stroke-opacity:1;stroke-dasharray:none"
       d="m 70.1289,9.77969 18.0149,0" /><path
       inkscape:connector-curvature="0"
       id="path3309"
       style="fill:none;stroke:#000000;stroke-width:0.47242498;stroke-linecap:butt;stroke-linejoin:miter;stroke-miterlimit:10;stroke-opacity:1;stroke-dasharray:none"
       d="m 124.111,18.7871 18.015,0" /><path
       inkscape:connector-curvature="0"
       id="path3311"
       style="fill:none;stroke:#000000;stroke-width:0.47242498;stroke-linecap:butt;stroke-linejoin:miter;stroke-miterlimit:10;stroke-opacity:1;stroke-dasharray:none"
       d="M 171.795,75.2891 157.307,109.304" /><path
       inkscape:connector-curvature="0"
       id="path3313"
       style="fill:none;stroke:#000000;stroke-width:0.47242498;stroke-linecap:butt;stroke-linejoin:miter;stroke-miterlimit:10;stroke-opacity:1;stroke-dasharray:none"
       d="M 173.054,57.652 141.559,18.598" /><path
       inkscape:connector-curvature="0"
       id="path3327"
       style="fill:#ffffff;fill-opacity:1;fill-rule:evenodd;stroke:none"
       d="M 30.4449,126.815 75.4199,108.8 30.4449,90.7848" /><path
       inkscape:connector-curvature="0"
       id="path3329"
       style="fill:#ffffff;fill-opacity:1;fill-rule:evenodd;stroke:none"
       d="M 186.03,83.9816 231.005,65.9668 186.03,47.9516" /><path
       inkscape:connector-curvature="0"
       id="path3331"
       style="fill:#ffffff;fill-opacity:1;fill-rule:evenodd;stroke:none"
       d="m 30.4441,126.812 c 5.7004,-4.251 9.059,-10.945 9.059,-18.056 0,-7.093 -3.3414,-13.7724 -9.0172,-18.0255" /><path
       inkscape:connector-curvature="0"
       id="path3333"
       style="fill:none;stroke:#000000;stroke-width:0.47242498;stroke-linecap:butt;stroke-linejoin:miter;stroke-miterlimit:10;stroke-opacity:1;stroke-dasharray:none"
       d="m 30.4441,126.812 c 5.7004,-4.251 9.059,-10.945 9.059,-18.056 0,-7.093 -3.3414,-13.7724 -9.0172,-18.0255" /><path
       inkscape:connector-curvature="0"
       id="path3335"
       style="fill:#ffffff;fill-opacity:1;fill-rule:evenodd;stroke:none"
       d="m 138.284,108.8 c 0,-2.47 -2.002,-4.473 -4.472,-4.473 -2.47,0 -4.473,2.003 -4.473,4.473 0,2.47 2.003,4.472 4.473,4.472 2.47,0 4.472,-2.002 4.472,-4.472" /><path
       inkscape:connector-curvature="0"
       id="path3337"
       style="fill:none;stroke:#000000;stroke-width:0.47242498;stroke-linecap:butt;stroke-linejoin:miter;stroke-miterlimit:10;stroke-opacity:1;stroke-dasharray:none"
       d="m 138.284,108.8 c 0,-2.47 -2.002,-4.473 -4.472,-4.473 -2.47,0 -4.473,2.003 -4.473,4.473 0,2.47 2.003,4.472 4.473,4.472 2.47,0 4.472,-2.002 4.472,-4.472 z" /><path
       inkscape:connector-curvature="0"
       id="path3339"
       style="fill:#ffffff;fill-opacity:1;fill-rule:evenodd;stroke:none"
       d="m 129.339,108.8 -27.022,13.48 0,-26.9601" /><path
       inkscape:connector-curvature="0"
       id="path3341"
       style="fill:none;stroke:#000000;stroke-width:0.47242498;stroke-linecap:butt;stroke-linejoin:miter;stroke-miterlimit:10;stroke-opacity:1;stroke-dasharray:none"
       d="m 129.339,108.8 -27.022,13.48 0,-26.9601 27.022,13.4801 z" /><path
       inkscape:connector-curvature="0"
       id="path3343"
       style="fill:#ffffff;fill-opacity:1;fill-rule:evenodd;stroke:none"
       d="m 186.03,83.9789 c 5.7,-4.2512 9.058,-10.9453 9.058,-18.0562 0,-7.093 -3.341,-13.7719 -9.017,-18.0254" /><path
       inkscape:connector-curvature="0"
       id="path3345"
       style="fill:none;stroke:#000000;stroke-width:0.47242498;stroke-linecap:butt;stroke-linejoin:miter;stroke-miterlimit:10;stroke-opacity:1;stroke-dasharray:none"
       d="m 186.03,83.9789 c 5.7,-4.2512 9.058,-10.9453 9.058,-18.0562 0,-7.093 -3.341,-13.7719 -9.017,-18.0254" /><path
       inkscape:connector-curvature="0"
       id="path3347"
       style="fill:none;stroke:#000000;stroke-width:0.47242498;stroke-linecap:butt;stroke-linejoin:miter;stroke-miterlimit:10;stroke-opacity:1;stroke-dasharray:none"
       d="m 75.4199,108.8 18.0153,0" /><path
       inkscape:connector-curvature="0"
       id="path3349"
       style="fill:none;stroke:#000000;stroke-width:0.47242498;stroke-linecap:butt;stroke-linejoin:miter;stroke-miterlimit:10;stroke-opacity:1;stroke-dasharray:none"
       d="m 16.9652,117.807 20.4086,0" /><path
       inkscape:connector-curvature="0"
       id="path3351"
       style="fill:none;stroke:#000000;stroke-width:0.47242498;stroke-linecap:butt;stroke-linejoin:miter;stroke-miterlimit:10;stroke-opacity:1;stroke-dasharray:none"
       d="m 16.9652,99.7922 20.4086,0" /><path
       inkscape:connector-curvature="0"
       id="path3353"
       style="fill:none;stroke:#000000;stroke-width:0.47242498;stroke-linecap:butt;stroke-linejoin:miter;stroke-miterlimit:10;stroke-opacity:1;stroke-dasharray:none"
       d="m 84.3645,108.8 17.9525,0" /><path
       inkscape:connector-curvature="0"
       id="path3355"
       style="fill:none;stroke:#000000;stroke-width:0.47242498;stroke-linecap:butt;stroke-linejoin:miter;stroke-miterlimit:10;stroke-opacity:1;stroke-dasharray:none"
       d="m 138.347,108.8 18.015,0" /><path
       inkscape:connector-curvature="0"
       id="path3357"
       style="fill:none;stroke:#000000;stroke-width:0.47242498;stroke-linecap:butt;stroke-linejoin:miter;stroke-miterlimit:10;stroke-opacity:1;stroke-dasharray:none"
       d="m 231.005,65.9668 18.015,0" /><path
       inkscape:connector-curvature="0"
       id="path3359"
       style="fill:none;stroke:#000000;stroke-width:0.47242498;stroke-linecap:butt;stroke-linejoin:miter;stroke-miterlimit:10;stroke-opacity:1;stroke-dasharray:none"
       d="m 172.55,74.9742 20.409,0" /><path
       inkscape:connector-curvature="0"
       id="path3361"
       style="fill:none;stroke:#000000;stroke-width:0.47242498;stroke-linecap:butt;stroke-linejoin:miter;stroke-miterlimit:10;stroke-opacity:1;stroke-dasharray:none"
       d="m 172.55,56.959 20.409,0" /><text
       xml:space="preserve"
       style="font-size:16px;font-style:normal;font-weight:normal;line-height:125%;letter-spacing:0px;word-spacing:0px;fill:#000000;fill-opacity:1;stroke:none;font-family:Times;-inkscape-font-specification:Times"
       x="5.0223284"
       y="-113.83929"
       id="text3433"
       sodipodi:linespacing="125%"
       transform="scale(1,-1)"><tspan
         sodipodi:role="line"
         id="tspan3435"
         x="5.0223284"
         y="-113.83929">A</tspan></text>
<text
       xml:space="preserve"
       style="font-size:16px;font-style:normal;font-weight:normal;line-height:125%;letter-spacing:0px;word-spacing:0px;fill:#000000;fill-opacity:1;stroke:none;font-family:Times;-inkscape-font-specification:Times"
       x="5.9507589"
       y="-94.496391"
       id="text3433-1"
       sodipodi:linespacing="125%"
       transform="scale(1,-1)"><tspan
         sodipodi:role="line"
         id="tspan3435-1"
         x="5.9507589"
         y="-94.496391">B</tspan></text>
<text
       xml:space="preserve"
       style="font-size:16px;font-style:normal;font-weight:normal;line-height:125%;letter-spacing:0px;word-spacing:0px;fill:#000000;fill-opacity:1;stroke:none;font-family:Times;-inkscape-font-specification:Times"
       x="58.736073"
       y="-4.1906137"
       id="text3433-1-7"
       sodipodi:linespacing="125%"
       transform="scale(1,-1)"><tspan
         sodipodi:role="line"
         id="tspan3435-1-8"
         x="58.736073"
         y="-4.1906137">C</tspan></text>
<text
       xml:space="preserve"
       style="font-size:16px;font-style:normal;font-weight:normal;line-height:125%;letter-spacing:0px;word-spacing:0px;fill:#000000;fill-opacity:1;stroke:none;font-family:Times;-inkscape-font-specification:Times"
       x="58.736073"
       y="-22.605785"
       id="text3433-1-4"
       sodipodi:linespacing="125%"
       transform="scale(1,-1)"><tspan
         sodipodi:role="line"
         id="tspan3435-1-3"
         x="58.736073"
         y="-22.605785">B</tspan></text>
</g></svg>