<?xml version="1.0" encoding="UTF-8" standalone="no"?>
<!-- Created with Inkscape (http://www.inkscape.org/) -->

<svg
   xmlns:dc="http://purl.org/dc/elements/1.1/"
   xmlns:cc="http://creativecommons.org/ns#"
   xmlns:rdf="http://www.w3.org/1999/02/22-rdf-syntax-ns#"
   xmlns:svg="http://www.w3.org/2000/svg"
   xmlns="http://www.w3.org/2000/svg"
   xmlns:sodipodi="http://sodipodi.sourceforge.net/DTD/sodipodi-0.dtd"
   xmlns:inkscape="http://www.inkscape.org/namespaces/inkscape"
   id="svg3195"
   version="1.1"
   inkscape:version="0.48.3.1 r9886"
   width="336.25"
   height="155"
   xml:space="preserve"
   sodipodi:docname="boolt-c.eps"><metadata
     id="metadata3201"><rdf:RDF><cc:Work
         rdf:about=""><dc:format>image/svg+xml</dc:format><dc:type
           rdf:resource="http://purl.org/dc/dcmitype/StillImage" /><dc:title></dc:title></cc:Work></rdf:RDF></metadata><defs
     id="defs3199" /><sodipodi:namedview
     pagecolor="#ffffff"
     bordercolor="#666666"
     borderopacity="1"
     objecttolerance="10"
     gridtolerance="10"
     guidetolerance="10"
     inkscape:pageopacity="0"
     inkscape:pageshadow="2"
     inkscape:window-width="1363"
     inkscape:window-height="557"
     id="namedview3197"
     showgrid="false"
     inkscape:zoom="1.332342"
     inkscape:cx="168.125"
     inkscape:cy="77.5"
     inkscape:window-x="0"
     inkscape:window-y="135"
     inkscape:window-maximized="0"
     inkscape:current-layer="g3203" /><g
     id="g3203"
     inkscape:groupmode="layer"
     inkscape:label="ink_ext_XXXXXX"
     transform="matrix(1.25,0,0,-1.25,0,155)"><path
       inkscape:connector-curvature="0"
       id="path3207"
       style="fill:#ffffff;fill-opacity:1;fill-rule:evenodd;stroke:none"
       d="m 121.146,62.1414 c 0.021,0 0.043,4e-4 0.063,4e-4 9.95,0 18.015,-8.066 18.015,-18.0152 0,-9.9493 -8.065,-18.0153 -18.015,-18.0153 -0.02,0 -0.042,0 -0.063,0" /><path
       inkscape:connector-curvature="0"
       id="path3209"
       style="fill:none;stroke:#000000;stroke-width:0.47242498;stroke-linecap:butt;stroke-linejoin:miter;stroke-miterlimit:10;stroke-opacity:1;stroke-dasharray:none"
       d="m 121.146,62.1414 c 0.021,0 0.043,4e-4 0.063,4e-4 9.95,0 18.015,-8.066 18.015,-18.0152 0,-9.9493 -8.065,-18.0153 -18.015,-18.0153 -0.02,0 -0.042,0 -0.063,0" /><path
       inkscape:connector-curvature="0"
       id="path3211"
       style="fill:#ffffff;fill-opacity:1;fill-rule:evenodd;stroke:none"
       d="m 103.194,26.1742 17.952,0 0,35.9676 -17.952,0 0,-35.9676 z" /><path
       inkscape:connector-curvature="0"
       id="path3213"
       style="fill:none;stroke:#000000;stroke-width:0.47242498;stroke-linecap:butt;stroke-linejoin:miter;stroke-miterlimit:10;stroke-opacity:1;stroke-dasharray:none"
       d="m 121.146,62.1418 -17.952,0 0,-35.9676 17.952,0" /><path
       inkscape:connector-curvature="0"
       id="path3215"
       style="fill:#ffffff;fill-opacity:1;fill-rule:evenodd;stroke:none"
       d="m 204.23,97.4133 c 3.434,0.9258 6.976,1.3949 10.532,1.3949 14.094,0 27.172,-7.3359 34.52,-19.3633" /><path
       inkscape:connector-curvature="0"
       id="path3217"
       style="fill:none;stroke:#000000;stroke-width:0.47242498;stroke-linecap:butt;stroke-linejoin:miter;stroke-miterlimit:10;stroke-opacity:1;stroke-dasharray:none"
       d="m 204.23,97.4133 c 3.434,0.9258 6.976,1.3949 10.532,1.3949 14.094,0 27.172,-7.3359 34.52,-19.3633" /><path
       inkscape:connector-curvature="0"
       id="path3219"
       style="fill:#ffffff;fill-opacity:1;fill-rule:evenodd;stroke:none"
       d="m 204.23,61.3852 c 3.434,-0.9274 6.975,-1.3977 10.532,-1.3977 14.092,0 27.165,7.3484 34.489,19.3871" /><path
       inkscape:connector-curvature="0"
       id="path3221"
       style="fill:none;stroke:#000000;stroke-width:0.47242498;stroke-linecap:butt;stroke-linejoin:miter;stroke-miterlimit:10;stroke-opacity:1;stroke-dasharray:none"
       d="m 204.23,61.3852 c 3.434,-0.9274 6.975,-1.3977 10.532,-1.3977 14.092,0 27.165,7.3484 34.489,19.3871" /><path
       inkscape:connector-curvature="0"
       id="path3223"
       style="fill:none;stroke:#000000;stroke-width:0.47242498;stroke-linecap:butt;stroke-linejoin:miter;stroke-miterlimit:10;stroke-opacity:1;stroke-dasharray:none"
       d="m 85.1789,53.134 18.0151,0" /><path
       inkscape:connector-curvature="0"
       id="path3225"
       style="fill:none;stroke:#000000;stroke-width:0.47242498;stroke-linecap:butt;stroke-linejoin:miter;stroke-miterlimit:10;stroke-opacity:1;stroke-dasharray:none"
       d="m 85.1789,35.182 18.0151,0" /><path
       inkscape:connector-curvature="0"
       id="path3227"
       style="fill:none;stroke:#000000;stroke-width:0.47242498;stroke-linecap:butt;stroke-linejoin:miter;stroke-miterlimit:10;stroke-opacity:1;stroke-dasharray:none"
       d="m 139.161,44.1895 18.016,0" /><path
       inkscape:connector-curvature="0"
       id="path3229"
       style="fill:none;stroke:#000000;stroke-width:0.47242498;stroke-linecap:butt;stroke-linejoin:miter;stroke-miterlimit:10;stroke-opacity:1;stroke-dasharray:none"
       d="M 190.624,70.7711 157.239,44.0637" /><path
       inkscape:connector-curvature="0"
       id="path3231"
       style="fill:none;stroke:#000000;stroke-width:0.47242498;stroke-linecap:butt;stroke-linejoin:miter;stroke-miterlimit:10;stroke-opacity:1;stroke-dasharray:none"
       d="m 159.633,118.329 31.18,-29.7946" /><path
       inkscape:connector-curvature="0"
       id="path3233"
       style="fill:none;stroke:#000000;stroke-width:0.47242498;stroke-linecap:butt;stroke-linejoin:miter;stroke-miterlimit:10;stroke-opacity:1;stroke-dasharray:none"
       d="M 84.6121,34.8668 54.9438,10.175" /><path
       inkscape:connector-curvature="0"
       id="path3245"
       style="fill:#ffffff;fill-opacity:1;fill-rule:evenodd;stroke:none"
       d="M 204.23,97.416 249.205,79.4008 204.23,61.3855" /><path
       inkscape:connector-curvature="0"
       id="path3247"
       style="fill:#ffffff;fill-opacity:1;fill-rule:evenodd;stroke:none"
       d="m 204.229,97.4133 c 5.701,-4.2512 9.059,-10.9453 9.059,-18.0567 0,-7.0929 -3.341,-13.7718 -9.017,-18.0254" /><path
       inkscape:connector-curvature="0"
       id="path3249"
       style="fill:none;stroke:#000000;stroke-width:0.47242498;stroke-linecap:butt;stroke-linejoin:miter;stroke-miterlimit:10;stroke-opacity:1;stroke-dasharray:none"
       d="m 204.229,97.4133 c 5.701,-4.2512 9.059,-10.9453 9.059,-18.0567 0,-7.0929 -3.341,-13.7718 -9.017,-18.0254" /><path
       inkscape:connector-curvature="0"
       id="path3251"
       style="fill:#ffffff;fill-opacity:1;fill-rule:evenodd;stroke:none"
       d="m 69.7465,53.0082 c 0,-2.4699 -2.0024,-4.4723 -4.4723,-4.4723 -2.4699,0 -4.4722,2.0024 -4.4722,4.4723 0,2.4699 2.0023,4.4723 4.4722,4.4723 2.4699,0 4.4723,-2.0024 4.4723,-4.4723" /><path
       inkscape:connector-curvature="0"
       id="path3253"
       style="fill:none;stroke:#000000;stroke-width:0.47242498;stroke-linecap:butt;stroke-linejoin:miter;stroke-miterlimit:10;stroke-opacity:1;stroke-dasharray:none"
       d="m 69.7465,53.0082 c 0,-2.4699 -2.0024,-4.4723 -4.4723,-4.4723 -2.4699,0 -4.4722,2.0024 -4.4722,4.4723 0,2.4699 2.0023,4.4723 4.4722,4.4723 2.4699,0 4.4723,-2.0024 4.4723,-4.4723 z" /><path
       inkscape:connector-curvature="0"
       id="path3255"
       style="fill:#ffffff;fill-opacity:1;fill-rule:evenodd;stroke:none"
       d="m 60.802,53.0082 -27.0231,13.4797 0,-26.9598" /><path
       inkscape:connector-curvature="0"
       id="path3257"
       style="fill:none;stroke:#000000;stroke-width:0.47242498;stroke-linecap:butt;stroke-linejoin:miter;stroke-miterlimit:10;stroke-opacity:1;stroke-dasharray:none"
       d="m 60.802,53.0082 -27.0231,13.4797 0,-26.9598 27.0231,13.4801 z" /><path
       inkscape:connector-curvature="0"
       id="path3259"
       style="fill:none;stroke:#000000;stroke-width:0.47242498;stroke-linecap:butt;stroke-linejoin:miter;stroke-miterlimit:10;stroke-opacity:1;stroke-dasharray:none"
       d="m 249.205,79.4008 18.015,0" /><path
       inkscape:connector-curvature="0"
       id="path3261"
       style="fill:none;stroke:#000000;stroke-width:0.47242498;stroke-linecap:butt;stroke-linejoin:miter;stroke-miterlimit:10;stroke-opacity:1;stroke-dasharray:none"
       d="m 190.75,88.4086 20.409,0" /><path
       inkscape:connector-curvature="0"
       id="path3263"
       style="fill:none;stroke:#000000;stroke-width:0.47242498;stroke-linecap:butt;stroke-linejoin:miter;stroke-miterlimit:10;stroke-opacity:1;stroke-dasharray:none"
       d="m 190.75,70.3934 20.409,0" /><path
       inkscape:connector-curvature="0"
       id="path3265"
       style="fill:none;stroke:#000000;stroke-width:0.47242498;stroke-linecap:butt;stroke-linejoin:miter;stroke-miterlimit:10;stroke-opacity:1;stroke-dasharray:none"
       d="m 15.827,53.0082 17.9519,0" /><path
       inkscape:connector-curvature="0"
       id="path3267"
       style="fill:none;stroke:#000000;stroke-width:0.47242498;stroke-linecap:butt;stroke-linejoin:miter;stroke-miterlimit:10;stroke-opacity:1;stroke-dasharray:none"
       d="m 69.8094,53.0082 18.0152,0" /><text
       xml:space="preserve"
       style="font-size:16px;font-style:normal;font-weight:normal;line-height:125%;letter-spacing:0px;word-spacing:0px;fill:#000000;fill-opacity:1;stroke:none;font-family:Times;-inkscape-font-specification:Times"
       x="147.94629"
       y="-112.89594"
       id="text3433"
       sodipodi:linespacing="125%"
       transform="scale(1,-1)"><tspan
         sodipodi:role="line"
         id="tspan3435"
         x="147.94629"
         y="-112.89594">A</tspan></text>
<text
       xml:space="preserve"
       style="font-size:16px;font-style:normal;font-weight:normal;line-height:125%;letter-spacing:0px;word-spacing:0px;fill:#000000;fill-opacity:1;stroke:none;font-family:Times;-inkscape-font-specification:Times"
       x="4.4395881"
       y="-48.047729"
       id="text3433-5"
       sodipodi:linespacing="125%"
       transform="scale(1,-1)"><tspan
         sodipodi:role="line"
         id="tspan3435-2"
         x="4.4395881"
         y="-48.047729">A</tspan></text>
<text
       xml:space="preserve"
       style="font-size:16px;font-style:normal;font-weight:normal;line-height:125%;letter-spacing:0px;word-spacing:0px;fill:#000000;fill-opacity:1;stroke:none;font-family:Times;-inkscape-font-specification:Times"
       x="44.95705"
       y="-4.9115896"
       id="text3433-1"
       sodipodi:linespacing="125%"
       transform="scale(1,-1)"><tspan
         sodipodi:role="line"
         id="tspan3435-1"
         x="44.95705"
         y="-4.9115896">B</tspan></text>
</g></svg>