<?xml version="1.0" encoding="UTF-8" standalone="no"?>
<!-- Created with Inkscape (http://www.inkscape.org/) -->

<svg
   xmlns:dc="http://purl.org/dc/elements/1.1/"
   xmlns:cc="http://creativecommons.org/ns#"
   xmlns:rdf="http://www.w3.org/1999/02/22-rdf-syntax-ns#"
   xmlns:svg="http://www.w3.org/2000/svg"
   xmlns="http://www.w3.org/2000/svg"
   xmlns:sodipodi="http://sodipodi.sourceforge.net/DTD/sodipodi-0.dtd"
   xmlns:inkscape="http://www.inkscape.org/namespaces/inkscape"
   id="svg3139"
   version="1.1"
   inkscape:version="0.48.3.1 r9886"
   width="243.75"
   height="105"
   xml:space="preserve"
   sodipodi:docname="boolt-b.eps"><metadata
     id="metadata3145"><rdf:RDF><cc:Work
         rdf:about=""><dc:format>image/svg+xml</dc:format><dc:type
           rdf:resource="http://purl.org/dc/dcmitype/StillImage" /><dc:title></dc:title></cc:Work></rdf:RDF></metadata><defs
     id="defs3143" /><sodipodi:namedview
     pagecolor="#ffffff"
     bordercolor="#666666"
     borderopacity="1"
     objecttolerance="10"
     gridtolerance="10"
     guidetolerance="10"
     inkscape:pageopacity="0"
     inkscape:pageshadow="2"
     inkscape:window-width="1363"
     inkscape:window-height="557"
     id="namedview3141"
     showgrid="false"
     inkscape:zoom="1.8379487"
     inkscape:cx="121.875"
     inkscape:cy="74.263393"
     inkscape:window-x="0"
     inkscape:window-y="120"
     inkscape:window-maximized="0"
     inkscape:current-layer="g3147" /><g
     id="g3147"
     inkscape:groupmode="layer"
     inkscape:label="ink_ext_XXXXXX"
     transform="matrix(1.25,0,0,-1.25,0,105)"><path
       inkscape:connector-curvature="0"
       id="path3151"
       style="fill:#ffffff;fill-opacity:1;fill-rule:evenodd;stroke:none"
       d="m 62.5305,57.9133 c 3.4336,0.9258 6.9754,1.3949 10.5316,1.3949 14.0941,0 27.1719,-7.3359 34.5199,-19.3633" /><path
       inkscape:connector-curvature="0"
       id="path3153"
       style="fill:none;stroke:#000000;stroke-width:0.47242498;stroke-linecap:butt;stroke-linejoin:miter;stroke-miterlimit:10;stroke-opacity:1;stroke-dasharray:none"
       d="m 62.5305,57.9133 c 3.4336,0.9258 6.9754,1.3949 10.5316,1.3949 14.0941,0 27.1719,-7.3359 34.5199,-19.3633" /><path
       inkscape:connector-curvature="0"
       id="path3155"
       style="fill:#ffffff;fill-opacity:1;fill-rule:evenodd;stroke:none"
       d="m 62.5301,21.8852 c 3.4336,-0.9274 6.975,-1.3977 10.532,-1.3977 14.0918,0 27.1649,7.3484 34.4889,19.3871" /><path
       inkscape:connector-curvature="0"
       id="path3157"
       style="fill:none;stroke:#000000;stroke-width:0.47242498;stroke-linecap:butt;stroke-linejoin:miter;stroke-miterlimit:10;stroke-opacity:1;stroke-dasharray:none"
       d="m 62.5301,21.8852 c 3.4336,-0.9274 6.975,-1.3977 10.532,-1.3977 14.0918,0 27.1649,7.3484 34.4889,19.3871" /><path
       inkscape:connector-curvature="0"
       id="path3159"
       style="fill:none;stroke:#000000;stroke-width:0.47242498;stroke-linecap:butt;stroke-linejoin:miter;stroke-miterlimit:10;stroke-opacity:1;stroke-dasharray:none"
       d="M 48.9242,31.2711 17.9332,5.13047" /><path
       inkscape:connector-curvature="0"
       id="path3161"
       style="fill:none;stroke:#000000;stroke-width:0.47242498;stroke-linecap:butt;stroke-linejoin:miter;stroke-miterlimit:10;stroke-opacity:1;stroke-dasharray:none"
       d="M 17.9332,78.8285 50.184,48.9086" /><path
       inkscape:connector-curvature="0"
       id="path3171"
       style="fill:#ffffff;fill-opacity:1;fill-rule:evenodd;stroke:none"
       d="M 62.5301,57.916 107.505,39.9008 62.5301,21.8855" /><path
       inkscape:connector-curvature="0"
       id="path3173"
       style="fill:#ffffff;fill-opacity:1;fill-rule:evenodd;stroke:none"
       d="m 62.5293,57.9133 c 5.7004,-4.2512 9.0586,-10.9453 9.0586,-18.0567 0,-7.0929 -3.341,-13.7718 -9.0168,-18.0254" /><path
       inkscape:connector-curvature="0"
       id="path3175"
       style="fill:none;stroke:#000000;stroke-width:0.47242498;stroke-linecap:butt;stroke-linejoin:miter;stroke-miterlimit:10;stroke-opacity:1;stroke-dasharray:none"
       d="m 62.5293,57.9133 c 5.7004,-4.2512 9.0586,-10.9453 9.0586,-18.0567 0,-7.0929 -3.341,-13.7718 -9.0168,-18.0254" /><path
       inkscape:connector-curvature="0"
       id="path3177"
       style="fill:#ffffff;fill-opacity:1;fill-rule:evenodd;stroke:none"
       d="m 175.723,40.216 c 0,-2.4699 -2.002,-4.4726 -4.472,-4.4726 -2.47,0 -4.472,2.0027 -4.472,4.4726 0,2.4699 2.002,4.4723 4.472,4.4723 2.47,0 4.472,-2.0024 4.472,-4.4723" /><path
       inkscape:connector-curvature="0"
       id="path3179"
       style="fill:none;stroke:#000000;stroke-width:0.47242498;stroke-linecap:butt;stroke-linejoin:miter;stroke-miterlimit:10;stroke-opacity:1;stroke-dasharray:none"
       d="m 175.723,40.216 c 0,-2.4699 -2.002,-4.4726 -4.472,-4.4726 -2.47,0 -4.472,2.0027 -4.472,4.4726 0,2.4699 2.002,4.4723 4.472,4.4723 2.47,0 4.472,-2.0024 4.472,-4.4723 z" /><path
       inkscape:connector-curvature="0"
       id="path3181"
       style="fill:#ffffff;fill-opacity:1;fill-rule:evenodd;stroke:none"
       d="m 166.779,40.216 -27.023,13.4797 0,-26.9598" /><path
       inkscape:connector-curvature="0"
       id="path3183"
       style="fill:none;stroke:#000000;stroke-width:0.47242498;stroke-linecap:butt;stroke-linejoin:miter;stroke-miterlimit:10;stroke-opacity:1;stroke-dasharray:none"
       d="m 166.779,40.216 -27.023,13.4797 0,-26.9598 27.023,13.4801 z" /><path
       inkscape:connector-curvature="0"
       id="path3185"
       style="fill:none;stroke:#000000;stroke-width:0.47242498;stroke-linecap:butt;stroke-linejoin:miter;stroke-miterlimit:10;stroke-opacity:1;stroke-dasharray:none"
       d="m 107.505,39.9008 18.015,0" /><path
       inkscape:connector-curvature="0"
       id="path3187"
       style="fill:none;stroke:#000000;stroke-width:0.47242498;stroke-linecap:butt;stroke-linejoin:miter;stroke-miterlimit:10;stroke-opacity:1;stroke-dasharray:none"
       d="m 49.05,48.9086 20.409,0" /><path
       inkscape:connector-curvature="0"
       id="path3189"
       style="fill:none;stroke:#000000;stroke-width:0.47242498;stroke-linecap:butt;stroke-linejoin:miter;stroke-miterlimit:10;stroke-opacity:1;stroke-dasharray:none"
       d="m 49.05,30.8934 20.409,0" /><path
       inkscape:connector-curvature="0"
       id="path3191"
       style="fill:none;stroke:#000000;stroke-width:0.47242498;stroke-linecap:butt;stroke-linejoin:miter;stroke-miterlimit:10;stroke-opacity:1;stroke-dasharray:none"
       d="m 121.804,40.216 17.952,0" /><path
       inkscape:connector-curvature="0"
       id="path3193"
       style="fill:none;stroke:#000000;stroke-width:0.47242498;stroke-linecap:butt;stroke-linejoin:miter;stroke-miterlimit:10;stroke-opacity:1;stroke-dasharray:none"
       d="m 175.786,40.216 18.015,0" /><text
       xml:space="preserve"
       style="font-size:16px;font-style:normal;font-weight:normal;line-height:125%;letter-spacing:0px;word-spacing:0px;fill:#000000;fill-opacity:1;stroke:none;font-family:Times;-inkscape-font-specification:Times"
       x="6.4194999"
       y="-71.650414"
       id="text3433-5"
       sodipodi:linespacing="125%"
       transform="scale(1,-1)"><tspan
         sodipodi:role="line"
         id="tspan3435-2"
         x="6.4194999"
         y="-71.650414">A</tspan></text>
<text
       xml:space="preserve"
       style="font-size:16px;font-style:normal;font-weight:normal;line-height:125%;letter-spacing:0px;word-spacing:0px;fill:#000000;fill-opacity:1;stroke:none;font-family:Times;-inkscape-font-specification:Times"
       x="6.8722324"
       y="-2.1035535"
       id="text3433-1"
       sodipodi:linespacing="125%"
       transform="scale(1,-1)"><tspan
         sodipodi:role="line"
         id="tspan3435-1"
         x="6.8722324"
         y="-2.1035535">B</tspan></text>
</g></svg>