<?xml version="1.0" encoding="UTF-8" standalone="no"?>
<!-- Created with Inkscape (http://www.inkscape.org/) -->

<svg
   xmlns:dc="http://purl.org/dc/elements/1.1/"
   xmlns:cc="http://creativecommons.org/ns#"
   xmlns:rdf="http://www.w3.org/1999/02/22-rdf-syntax-ns#"
   xmlns:svg="http://www.w3.org/2000/svg"
   xmlns="http://www.w3.org/2000/svg"
   xmlns:sodipodi="http://sodipodi.sourceforge.net/DTD/sodipodi-0.dtd"
   xmlns:inkscape="http://www.inkscape.org/namespaces/inkscape"
   id="svg3011"
   version="1.1"
   inkscape:version="0.48.3.1 r9886"
   width="240"
   height="150"
   xml:space="preserve"
   sodipodi:docname="boolesim.eps"><metadata
     id="metadata3017"><rdf:RDF><cc:Work
         rdf:about=""><dc:format>image/svg+xml</dc:format><dc:type
           rdf:resource="http://purl.org/dc/dcmitype/StillImage" /><dc:title></dc:title></cc:Work></rdf:RDF></metadata><defs
     id="defs3015" /><sodipodi:namedview
     pagecolor="#ffffff"
     bordercolor="#666666"
     borderopacity="1"
     objecttolerance="10"
     gridtolerance="10"
     guidetolerance="10"
     inkscape:pageopacity="0"
     inkscape:pageshadow="2"
     inkscape:window-width="1363"
     inkscape:window-height="557"
     id="namedview3013"
     showgrid="false"
     inkscape:zoom="1.5733333"
     inkscape:cx="119.65281"
     inkscape:cy="75.386882"
     inkscape:window-x="0"
     inkscape:window-y="90"
     inkscape:window-maximized="0"
     inkscape:current-layer="g3019" /><g
     id="g3019"
     inkscape:groupmode="layer"
     inkscape:label="ink_ext_XXXXXX"
     transform="matrix(1.25,0,0,-1.25,0,150)"><path
       inkscape:connector-curvature="0"
       id="path3023"
       style="fill:#ffffff;fill-opacity:1;fill-rule:evenodd;stroke:none"
       d="m 155.033,78.2609 c 0.021,0 0.042,0 0.063,0 9.949,0 18.015,-8.066 18.015,-18.0152 0,-9.9492 -8.066,-18.0152 -18.015,-18.0152 -0.021,0 -0.042,4e-4 -0.063,4e-4" /><path
       inkscape:connector-curvature="0"
       id="path3025"
       style="fill:none;stroke:#000000;stroke-width:0.47242498;stroke-linecap:butt;stroke-linejoin:miter;stroke-miterlimit:10;stroke-opacity:1;stroke-dasharray:none"
       d="m 155.033,78.2609 c 0.021,0 0.042,0 0.063,0 9.949,0 18.015,-8.066 18.015,-18.0152 0,-9.9492 -8.066,-18.0152 -18.015,-18.0152 -0.021,0 -0.042,4e-4 -0.063,4e-4" /><path
       inkscape:connector-curvature="0"
       id="path3027"
       style="fill:#ffffff;fill-opacity:1;fill-rule:evenodd;stroke:none"
       d="m 137.081,42.2938 17.9523,0 0,35.9672 -17.9523,0 0,-35.9672 z" /><path
       inkscape:connector-curvature="0"
       id="path3029"
       style="fill:none;stroke:#000000;stroke-width:0.47242498;stroke-linecap:butt;stroke-linejoin:miter;stroke-miterlimit:10;stroke-opacity:1;stroke-dasharray:none"
       d="m 155.033,78.2609 -17.952,0 0,-35.9671 17.952,0" /><path
       inkscape:connector-curvature="0"
       id="path3031"
       style="fill:none;stroke:#000000;stroke-width:0.47242498;stroke-linecap:butt;stroke-linejoin:miter;stroke-miterlimit:10;stroke-opacity:1;stroke-dasharray:none"
       d="m 119.066,69.2531 18.015,0" /><path
       inkscape:connector-curvature="0"
       id="path3033"
       style="fill:none;stroke:#000000;stroke-width:0.47242498;stroke-linecap:butt;stroke-linejoin:miter;stroke-miterlimit:10;stroke-opacity:1;stroke-dasharray:none"
       d="m 119.066,51.3012 18.015,0" /><path
       inkscape:connector-curvature="0"
       id="path3035"
       style="fill:none;stroke:#000000;stroke-width:0.47242498;stroke-linecap:butt;stroke-linejoin:miter;stroke-miterlimit:10;stroke-opacity:1;stroke-dasharray:none"
       d="m 173.048,60.3086 18.015,0" /><path
       inkscape:connector-curvature="0"
       id="path3037"
       style="fill:#ffffff;fill-opacity:1;fill-rule:evenodd;stroke:none"
       d="m 28.3609,37.9445 c 3.4336,0.9258 6.975,1.395 10.5313,1.395 14.0941,0 27.1723,-7.336 34.5199,-19.3633" /><path
       inkscape:connector-curvature="0"
       id="path3039"
       style="fill:none;stroke:#000000;stroke-width:0.47242498;stroke-linecap:butt;stroke-linejoin:miter;stroke-miterlimit:10;stroke-opacity:1;stroke-dasharray:none"
       d="m 28.3609,37.9445 c 3.4336,0.9258 6.975,1.395 10.5313,1.395 14.0941,0 27.1723,-7.336 34.5199,-19.3633" /><path
       inkscape:connector-curvature="0"
       id="path3041"
       style="fill:#ffffff;fill-opacity:1;fill-rule:evenodd;stroke:none"
       d="m 28.3605,1.91641 c 3.4336,-0.927348 6.975,-1.39766 10.5317,-1.39766 14.0918,0 27.1644,7.34844 34.4887,19.38715" /><path
       inkscape:connector-curvature="0"
       id="path3043"
       style="fill:none;stroke:#000000;stroke-width:0.47242498;stroke-linecap:butt;stroke-linejoin:miter;stroke-miterlimit:10;stroke-opacity:1;stroke-dasharray:none"
       d="m 28.3605,1.91641 c 3.4336,-0.927348 6.975,-1.39766 10.5317,-1.39766 14.0918,0 27.1644,7.34844 34.4887,19.38715" /><path
       inkscape:connector-curvature="0"
       id="path3045"
       style="fill:none;stroke:#000000;stroke-width:0.47242498;stroke-linecap:butt;stroke-linejoin:miter;stroke-miterlimit:10;stroke-opacity:1;stroke-dasharray:none"
       d="M 86.6891,102.323 118.814,69.5684" /><path
       inkscape:connector-curvature="0"
       id="path3047"
       style="fill:none;stroke:#000000;stroke-width:0.47242498;stroke-linecap:butt;stroke-linejoin:miter;stroke-miterlimit:10;stroke-opacity:1;stroke-dasharray:none"
       d="m 91.0984,19.8062 27.0856,31.495" /><path
       inkscape:connector-curvature="0"
       id="path3059"
       style="fill:#ffffff;fill-opacity:1;fill-rule:evenodd;stroke:none"
       d="M 28.3602,37.9473 73.3352,19.932 28.3602,1.9168" /><path
       inkscape:connector-curvature="0"
       id="path3061"
       style="fill:#ffffff;fill-opacity:1;fill-rule:evenodd;stroke:none"
       d="m 28.3594,37.9445 c 5.7004,-4.2511 9.059,-10.9453 9.059,-18.0566 0,-7.093 -3.3414,-13.77188 -9.0172,-18.0254" /><path
       inkscape:connector-curvature="0"
       id="path3063"
       style="fill:none;stroke:#000000;stroke-width:0.47242498;stroke-linecap:butt;stroke-linejoin:miter;stroke-miterlimit:10;stroke-opacity:1;stroke-dasharray:none"
       d="m 28.3594,37.9445 c 5.7004,-4.2511 9.059,-10.9453 9.059,-18.0566 0,-7.093 -3.3414,-13.77188 -9.0172,-18.0254" /><path
       inkscape:connector-curvature="0"
       id="path3065"
       style="fill:#ffffff;fill-opacity:1;fill-rule:evenodd;stroke:none"
       d="m 68.8,102.134 c 0,-2.4699 -2.0023,-4.4723 -4.4723,-4.4723 -2.4699,0 -4.4726,2.0024 -4.4726,4.4723 0,2.47 2.0027,4.472 4.4726,4.472 2.47,0 4.4723,-2.002 4.4723,-4.472" /><path
       inkscape:connector-curvature="0"
       id="path3067"
       style="fill:none;stroke:#000000;stroke-width:0.47242498;stroke-linecap:butt;stroke-linejoin:miter;stroke-miterlimit:10;stroke-opacity:1;stroke-dasharray:none"
       d="m 68.8,102.134 c 0,-2.4699 -2.0023,-4.4723 -4.4723,-4.4723 -2.4699,0 -4.4726,2.0024 -4.4726,4.4723 0,2.47 2.0027,4.472 4.4726,4.472 2.47,0 4.4723,-2.002 4.4723,-4.472 z" /><path
       inkscape:connector-curvature="0"
       id="path3069"
       style="fill:#ffffff;fill-opacity:1;fill-rule:evenodd;stroke:none"
       d="m 59.8551,102.134 -27.0227,13.48 0,-26.9597" /><path
       inkscape:connector-curvature="0"
       id="path3071"
       style="fill:none;stroke:#000000;stroke-width:0.47242498;stroke-linecap:butt;stroke-linejoin:miter;stroke-miterlimit:10;stroke-opacity:1;stroke-dasharray:none"
       d="m 59.8551,102.134 -27.0227,13.48 0,-26.9597 27.0227,13.4797 z" /><path
       inkscape:connector-curvature="0"
       id="path3073"
       style="fill:none;stroke:#000000;stroke-width:0.47242498;stroke-linecap:butt;stroke-linejoin:miter;stroke-miterlimit:10;stroke-opacity:1;stroke-dasharray:none"
       d="m 73.3352,19.932 18.0152,0" /><path
       inkscape:connector-curvature="0"
       id="path3075"
       style="fill:none;stroke:#000000;stroke-width:0.47242498;stroke-linecap:butt;stroke-linejoin:miter;stroke-miterlimit:10;stroke-opacity:1;stroke-dasharray:none"
       d="m 14.8805,28.9398 20.4086,0" /><path
       inkscape:connector-curvature="0"
       id="path3077"
       style="fill:none;stroke:#000000;stroke-width:0.47242498;stroke-linecap:butt;stroke-linejoin:miter;stroke-miterlimit:10;stroke-opacity:1;stroke-dasharray:none"
       d="m 14.8805,10.9246 20.4086,0" /><path
       inkscape:connector-curvature="0"
       id="path3079"
       style="fill:none;stroke:#000000;stroke-width:0.47242498;stroke-linecap:butt;stroke-linejoin:miter;stroke-miterlimit:10;stroke-opacity:1;stroke-dasharray:none"
       d="m 14.8805,102.134 17.9519,0" /><path
       inkscape:connector-curvature="0"
       id="path3081"
       style="fill:none;stroke:#000000;stroke-width:0.47242498;stroke-linecap:butt;stroke-linejoin:miter;stroke-miterlimit:10;stroke-opacity:1;stroke-dasharray:none"
       d="m 68.8629,102.134 18.0152,0" /><text
       xml:space="preserve"
       style="font-size:16px;font-style:normal;font-weight:normal;line-height:125%;letter-spacing:0px;word-spacing:0px;fill:#000000;fill-opacity:1;stroke:none;font-family:Times;-inkscape-font-specification:Times"
       x="3.3845422"
       y="-97.902916"
       id="text3433-5"
       sodipodi:linespacing="125%"
       transform="scale(1,-1)"><tspan
         sodipodi:role="line"
         id="tspan3435-2"
         x="3.3845422"
         y="-97.902916">A</tspan></text>
<text
       xml:space="preserve"
       style="font-size:16px;font-style:normal;font-weight:normal;line-height:125%;letter-spacing:0px;word-spacing:0px;fill:#000000;fill-opacity:1;stroke:none;font-family:Times;-inkscape-font-specification:Times"
       x="4.2725425"
       y="-23.68705"
       id="text3433-1"
       sodipodi:linespacing="125%"
       transform="scale(1,-1)"><tspan
         sodipodi:role="line"
         id="tspan3435-1"
         x="4.2725425"
         y="-23.68705">B</tspan></text>
<text
       xml:space="preserve"
       style="font-size:16px;font-style:normal;font-weight:normal;line-height:125%;letter-spacing:0px;word-spacing:0px;fill:#000000;fill-opacity:1;stroke:none;font-family:Times;-inkscape-font-specification:Times"
       x="4.3730149"
       y="-6.3989158"
       id="text3433-1-7"
       sodipodi:linespacing="125%"
       transform="scale(1,-1)"><tspan
         sodipodi:role="line"
         id="tspan3435-1-8"
         x="4.3730149"
         y="-6.3989158">C</tspan></text>
</g></svg>