<?xml version="1.0" encoding="UTF-8" standalone="no"?>
<!-- Created with Inkscape (http://www.inkscape.org/) -->

<svg
   xmlns:dc="http://purl.org/dc/elements/1.1/"
   xmlns:cc="http://creativecommons.org/ns#"
   xmlns:rdf="http://www.w3.org/1999/02/22-rdf-syntax-ns#"
   xmlns:svg="http://www.w3.org/2000/svg"
   xmlns="http://www.w3.org/2000/svg"
   xmlns:sodipodi="http://sodipodi.sourceforge.net/DTD/sodipodi-0.dtd"
   xmlns:inkscape="http://www.inkscape.org/namespaces/inkscape"
   id="svg3083"
   version="1.1"
   inkscape:version="0.48.3.1 r9886"
   width="243.75"
   height="142.5"
   xml:space="preserve"
   sodipodi:docname="boolt-a.eps"><metadata
     id="metadata3089"><rdf:RDF><cc:Work
         rdf:about=""><dc:format>image/svg+xml</dc:format><dc:type
           rdf:resource="http://purl.org/dc/dcmitype/StillImage" /><dc:title></dc:title></cc:Work></rdf:RDF></metadata><defs
     id="defs3087" /><sodipodi:namedview
     pagecolor="#ffffff"
     bordercolor="#666666"
     borderopacity="1"
     objecttolerance="10"
     gridtolerance="10"
     guidetolerance="10"
     inkscape:pageopacity="0"
     inkscape:pageshadow="2"
     inkscape:window-width="1363"
     inkscape:window-height="557"
     id="namedview3085"
     showgrid="false"
     inkscape:zoom="1.6561404"
     inkscape:cx="121.875"
     inkscape:cy="71.25"
     inkscape:window-x="0"
     inkscape:window-y="105"
     inkscape:window-maximized="0"
     inkscape:current-layer="g3091" /><g
     id="g3091"
     inkscape:groupmode="layer"
     inkscape:label="ink_ext_XXXXXX"
     transform="matrix(1.25,0,0,-1.25,0,142.5)"><path
       inkscape:connector-curvature="0"
       id="path3095"
       style="fill:#ffffff;fill-opacity:1;fill-rule:evenodd;stroke:none"
       d="m 130.53,71.2133 c 3.434,0.9258 6.976,1.3949 10.532,1.3949 14.094,0 27.172,-7.3359 34.52,-19.3633" /><path
       inkscape:connector-curvature="0"
       id="path3097"
       style="fill:none;stroke:#000000;stroke-width:0.47242498;stroke-linecap:butt;stroke-linejoin:miter;stroke-miterlimit:10;stroke-opacity:1;stroke-dasharray:none"
       d="m 130.53,71.2133 c 3.434,0.9258 6.976,1.3949 10.532,1.3949 14.094,0 27.172,-7.3359 34.52,-19.3633" /><path
       inkscape:connector-curvature="0"
       id="path3099"
       style="fill:#ffffff;fill-opacity:1;fill-rule:evenodd;stroke:none"
       d="m 130.53,35.1852 c 3.434,-0.9274 6.975,-1.3977 10.532,-1.3977 14.092,0 27.165,7.3484 34.489,19.3871" /><path
       inkscape:connector-curvature="0"
       id="path3101"
       style="fill:none;stroke:#000000;stroke-width:0.47242498;stroke-linecap:butt;stroke-linejoin:miter;stroke-miterlimit:10;stroke-opacity:1;stroke-dasharray:none"
       d="m 130.53,35.1852 c 3.434,-0.9274 6.975,-1.3977 10.532,-1.3977 14.092,0 27.165,7.3484 34.489,19.3871" /><path
       inkscape:connector-curvature="0"
       id="path3103"
       style="fill:none;stroke:#000000;stroke-width:0.47242498;stroke-linecap:butt;stroke-linejoin:miter;stroke-miterlimit:10;stroke-opacity:1;stroke-dasharray:none"
       d="M 86.6891,96.223 118.184,62.2086" /><path
       inkscape:connector-curvature="0"
       id="path3105"
       style="fill:none;stroke:#000000;stroke-width:0.47242498;stroke-linecap:butt;stroke-linejoin:miter;stroke-miterlimit:10;stroke-opacity:1;stroke-dasharray:none"
       d="M 116.924,44.5711 82.9098,9.29688" /><path
       inkscape:connector-curvature="0"
       id="path3115"
       style="fill:#ffffff;fill-opacity:1;fill-rule:evenodd;stroke:none"
       d="M 130.53,71.216 175.505,53.2008 130.53,35.1855" /><path
       inkscape:connector-curvature="0"
       id="path3117"
       style="fill:#ffffff;fill-opacity:1;fill-rule:evenodd;stroke:none"
       d="m 68.8,96.034 c 0,-2.4699 -2.0023,-4.4723 -4.4723,-4.4723 -2.4699,0 -4.4726,2.0024 -4.4726,4.4723 0,2.4699 2.0027,4.472 4.4726,4.472 2.47,0 4.4723,-2.0021 4.4723,-4.472" /><path
       inkscape:connector-curvature="0"
       id="path3119"
       style="fill:none;stroke:#000000;stroke-width:0.47242498;stroke-linecap:butt;stroke-linejoin:miter;stroke-miterlimit:10;stroke-opacity:1;stroke-dasharray:none"
       d="m 68.8,96.034 c 0,-2.4699 -2.0023,-4.4723 -4.4723,-4.4723 -2.4699,0 -4.4726,2.0024 -4.4726,4.4723 0,2.4699 2.0027,4.472 4.4726,4.472 2.47,0 4.4723,-2.0021 4.4723,-4.472 z" /><path
       inkscape:connector-curvature="0"
       id="path3121"
       style="fill:#ffffff;fill-opacity:1;fill-rule:evenodd;stroke:none"
       d="m 59.8551,96.034 -27.0227,13.48 0,-26.9597" /><path
       inkscape:connector-curvature="0"
       id="path3123"
       style="fill:none;stroke:#000000;stroke-width:0.47242498;stroke-linecap:butt;stroke-linejoin:miter;stroke-miterlimit:10;stroke-opacity:1;stroke-dasharray:none"
       d="m 59.8551,96.034 -27.0227,13.48 0,-26.9597 27.0227,13.4797 z" /><path
       inkscape:connector-curvature="0"
       id="path3125"
       style="fill:#ffffff;fill-opacity:1;fill-rule:evenodd;stroke:none"
       d="m 130.529,71.2133 c 5.701,-4.2512 9.059,-10.9453 9.059,-18.0567 0,-7.0929 -3.341,-13.7718 -9.017,-18.0254" /><path
       inkscape:connector-curvature="0"
       id="path3127"
       style="fill:none;stroke:#000000;stroke-width:0.47242498;stroke-linecap:butt;stroke-linejoin:miter;stroke-miterlimit:10;stroke-opacity:1;stroke-dasharray:none"
       d="m 130.529,71.2133 c 5.701,-4.2512 9.059,-10.9453 9.059,-18.0567 0,-7.0929 -3.341,-13.7718 -9.017,-18.0254" /><path
       inkscape:connector-curvature="0"
       id="path3129"
       style="fill:none;stroke:#000000;stroke-width:0.47242498;stroke-linecap:butt;stroke-linejoin:miter;stroke-miterlimit:10;stroke-opacity:1;stroke-dasharray:none"
       d="m 14.8805,96.034 17.9519,0" /><path
       inkscape:connector-curvature="0"
       id="path3131"
       style="fill:none;stroke:#000000;stroke-width:0.47242498;stroke-linecap:butt;stroke-linejoin:miter;stroke-miterlimit:10;stroke-opacity:1;stroke-dasharray:none"
       d="m 68.8629,96.034 18.0152,0" /><path
       inkscape:connector-curvature="0"
       id="path3133"
       style="fill:none;stroke:#000000;stroke-width:0.47242498;stroke-linecap:butt;stroke-linejoin:miter;stroke-miterlimit:10;stroke-opacity:1;stroke-dasharray:none"
       d="m 175.505,53.2008 18.015,0" /><path
       inkscape:connector-curvature="0"
       id="path3135"
       style="fill:none;stroke:#000000;stroke-width:0.47242498;stroke-linecap:butt;stroke-linejoin:miter;stroke-miterlimit:10;stroke-opacity:1;stroke-dasharray:none"
       d="m 117.05,62.2086 20.409,0" /><path
       inkscape:connector-curvature="0"
       id="path3137"
       style="fill:none;stroke:#000000;stroke-width:0.47242498;stroke-linecap:butt;stroke-linejoin:miter;stroke-miterlimit:10;stroke-opacity:1;stroke-dasharray:none"
       d="m 117.05,44.1934 20.409,0" /><text
       xml:space="preserve"
       style="font-size:16px;font-style:normal;font-weight:normal;line-height:125%;letter-spacing:0px;word-spacing:0px;fill:#000000;fill-opacity:1;stroke:none;font-family:Times;-inkscape-font-specification:Times"
       x="3.409966"
       y="-90.735115"
       id="text3433-5"
       sodipodi:linespacing="125%"
       transform="scale(1,-1)"><tspan
         sodipodi:role="line"
         id="tspan3435-2"
         x="3.409966"
         y="-90.735115">A</tspan></text>
<text
       xml:space="preserve"
       style="font-size:16px;font-style:normal;font-weight:normal;line-height:125%;letter-spacing:0px;word-spacing:0px;fill:#000000;fill-opacity:1;stroke:none;font-family:Times;-inkscape-font-specification:Times"
       x="71.925087"
       y="-4.365016"
       id="text3433-1"
       sodipodi:linespacing="125%"
       transform="scale(1,-1)"><tspan
         sodipodi:role="line"
         id="tspan3435-1"
         x="71.925087"
         y="-4.365016">B</tspan></text>
</g></svg>